Input #0, mov,mp4,m4a,3gp,3g2,mj2, from '/home/hbattu/projects/huberman-gpt/huberman-audio/mp3/tmp1c4a77h6.mp4':
  Metadata:
    major_brand     : dash
    minor_version   : 0
    compatible_brands: iso6mp41
    creation_time   : 2023-02-24T07:07:04.000000Z
  Duration: 02:18:49.32, start: 0.000000, bitrate: 129 kb/s
    Stream #0:0(eng): Audio: aac (LC) (mp4a / 0x6134706D), 44100 Hz, stereo, fltp, 0 kb/s (default)
    Metadata:
      creation_time   : 2023-02-24T07:07:04.000000Z
      handler_name    : ISO Media file produced by Google Inc.
Stream mapping:
  Stream #0:0 -> #0:0 (aac (native) -> mp3 (libmp3lame))
Press [q] to stop, [?] for help
[graph_0_in_0_0 @ 0x55ad9c763d80] tb:1/44100 samplefmt:fltp samplerate:44100 chlayout:0x3
Output #0, mp3, to '../huberman-audio/mp3/x4m_PdFbu-s.mp3':
  Metadata:
    major_brand     : dash
    minor_version   : 0
    compatible_brands: iso6mp41
    TSSE            : Lavf58.29.100
    Stream #0:0(eng): Audio: mp3 (libmp3lame), 44100 Hz, stereo, fltp, delay 1105 (default)
    Metadata:
      creation_time   : 2023-02-24T07:07:04.000000Z
      handler_name    : ISO Media file produced by Google Inc.
      encoder         : Lavc58.54.100 libmp3lame
No more output streams to write to, finishing.
size=  130146kB time=02:18:49.32 bitrate= 128.0kbits/s speed=95.9x    
[AVIOContext @ 0x55ad9c651900] Statistics: 0 seeks, 174 writeouts
video:0kB audio:130146kB subtitle:0kB other streams:0kB global headers:0kB muxing overhead: 0.000260%
Input file #0 (/home/hbattu/projects/huberman-gpt/huberman-audio/mp3/tmp1c4a77h6.mp4):
  Input stream #0:0 (audio): 358714 packets read (133269164 bytes); 358714 frames decoded (367323136 samples); 
  Total: 358714 packets (133269164 bytes) demuxed
Output file #0 (../huberman-audio/mp3/x4m_PdFbu-s.mp3):
  Output stream #0:0 (audio): 318857 frames encoded (367323136 samples); 318858 packets muxed (133269629 bytes); 
  Total: 318858 packets (133269629 bytes) muxed
[AVIOContext @ 0x55ad9c680280] Statistics: 2 seeks, 510 writeouts
[AVIOContext @ 0x55ad9c65a880] Statistics: 134801544 bytes read, 0 seeks
